<?xml version="1.0" encoding="UTF-8"?>
<!DOCTYPE svg PUBLIC "-//W3C//DTD SVG 1.1//EN" "http://www.w3.org/Graphics/SVG/1.1/DTD/svg11.dtd">
<!-- Creator: CorelDRAW 2020 (64-Bit) -->
<svg xmlns="http://www.w3.org/2000/svg" xml:space="preserve" width="234px" height="50px" version="1.1" style="shape-rendering:geometricPrecision; text-rendering:geometricPrecision; image-rendering:optimizeQuality; fill-rule:evenodd; clip-rule:evenodd"
viewBox="0 0 82.6 17.62"
 xmlns:xlink="http://www.w3.org/1999/xlink"
 xmlns:xodm="http://www.corel.com/coreldraw/odm/2003">
 <defs>
  <style type="text/css">
   <![CDATA[
    .fil2 {fill:none;fill-rule:nonzero}
    .fil1 {fill:#EF7F1A}
    .fil0 {fill:#008DD2}
    .fil4 {fill:#FEFEFE;fill-rule:nonzero}
    .fil5 {fill:#EF7F1A;fill-rule:nonzero}
    .fil3 {fill:#008DD2;fill-rule:nonzero}
   ]]>
  </style>
 </defs>
 <g id="Layer_x0020_1">
  <metadata id="CorelCorpID_0Corel-Layer"/>
  <g id="_2384707014896">
   <g>
    <path class="fil0" d="M79.49 13.63l-46.93 0 0 -12.21 46.93 0c1.71,0 3.11,1.4 3.11,3.11l0 6c0,1.71 -1.4,3.1 -3.11,3.1z"/>
    <g>
     <path class="fil1" d="M26.42 7.08l0.05 0.02c0.09,-0.09 0.19,-0.17 0.3,-0.24 0.05,-0.04 0.11,-0.07 0.18,-0.11 0.07,-0.26 0.14,-0.56 0.23,-0.62 0.3,0.17 -0.32,0.23 0.87,0.25 0.64,0.01 0.71,0.08 0.89,-0.26 0.15,0.16 0.19,0.58 0.28,0.88 0.04,0.03 0.08,0.07 0.12,0.11 0.02,0.02 0.04,0.04 0.05,0.06 0.12,0.02 0.19,0.01 0.31,-0.04 0.04,-0.09 0.08,-0.45 0.12,-0.8 -0.09,-0.08 -0.19,-0.15 -0.29,-0.22 -0.15,-0.11 -0.32,-0.2 -0.5,-0.27 -0.35,-0.15 -0.73,-0.23 -1.13,-0.23 -0.2,0 -0.4,0.02 -0.59,0.06 -0.18,0.04 -0.37,0.09 -0.55,0.17 -0.16,0.07 -0.31,0.15 -0.45,0.24 0,0.09 0.01,0.19 0.02,0.31 0.01,0.2 0.04,0.55 0.09,0.69zm3.44 -1.24c0,-0.11 0,-0.18 -0.01,-0.22 -0.03,-0.25 -0.34,-0.44 -0.49,-0.67 -0.23,-0.35 0.3,-1.54 -0.07,-2.98 -0.05,-0.21 -0.18,-0.49 -0.22,-0.72 -0.29,-0.08 -1.4,-0.06 -1.77,-0.07 -0.9,1.37 -0.26,3.38 -0.47,3.71 -0.33,0.48 -0.48,0.37 -0.52,0.71 0.1,-0.05 0.19,-0.09 0.29,-0.14 0.2,-0.08 0.42,-0.15 0.63,-0.19 0.22,-0.05 0.45,-0.07 0.67,-0.07 0.46,0 0.89,0.09 1.29,0.26 0.2,0.09 0.39,0.19 0.57,0.31 0.03,0.02 0.06,0.04 0.1,0.07zm-2.17 -3.25c-0.03,0.2 -0.02,0.45 0.31,0.54 0.2,0.05 0.5,-0.03 0.58,-0.35 0.14,-0.53 -0.77,-0.88 -0.89,-0.19z"/>
     <path class="fil1" d="M28.05 8.56c0.29,-0.31 0.57,-0.68 0.65,-1.05 0.02,-0.11 0.03,-0.23 0.03,-0.36 -0.06,-0.04 -0.13,-0.07 -0.2,-0.1 -0.09,-0.04 -0.2,-0.07 -0.3,-0.09l-0.02 -0.01c-0.03,0.07 -0.07,0.15 -0.15,0.25 -0.08,-0.09 -0.13,-0.18 -0.16,-0.27l0 0c-0.12,0 -0.22,0.01 -0.32,0.03l-0.01 0c-0.06,0.01 -0.11,0.03 -0.17,0.04 -0.03,0.11 -0.04,0.21 -0.04,0.26 -0.01,0.33 0.26,1.03 0.69,1.3z"/>
     <path class="fil1" d="M28.2 9.58c0.49,-0.6 0.97,-1.24 0.8,-2.02 -0.27,0.52 -0.41,1.14 -1.05,1.26 -0.6,-0.42 -0.63,-0.85 -0.87,-1.3 -0.21,0.56 0.22,1.38 0.57,1.86 0.18,0.24 0.31,0.51 0.55,0.2z"/>
     <path class="fil1" d="M27.39 0.97c0.23,0.1 1.25,0.11 1.5,0.06l-0.32 -0.55c-0.04,-0.07 -0.11,-0.17 -0.17,-0.25 0,-0.01 -0.1,-0.13 -0.11,-0.14l-0.13 -0.09c-0.29,0.18 -0.56,0.66 -0.77,0.97z"/>
    </g>
    <path class="fil2" d="M5.39 9.26l-3.33 0 -0.81 1.94c-0.04,0.09 -0.08,0.16 -0.15,0.22 -0.06,0.06 -0.13,0.11 -0.21,0.13 -0.08,0.03 -0.17,0.05 -0.25,0.04 -0.09,0 -0.18,-0.02 -0.27,-0.05 -0.17,-0.08 -0.28,-0.2 -0.34,-0.36 -0.05,-0.16 -0.04,-0.33 0.04,-0.5l3.08 -7.1c0.06,-0.12 0.14,-0.22 0.24,-0.29 0.1,-0.07 0.22,-0.11 0.36,-0.11 0.12,0 0.24,0.04 0.35,0.1 0.11,0.07 0.19,0.17 0.24,0.3l3.05 7.1c0.07,0.17 0.08,0.34 0.03,0.5 -0.05,0.16 -0.16,0.28 -0.33,0.36 -0.08,0.04 -0.17,0.06 -0.25,0.06 -0.09,0 -0.17,-0.01 -0.25,-0.04 -0.08,-0.03 -0.15,-0.08 -0.22,-0.14 -0.07,-0.06 -0.12,-0.13 -0.16,-0.21l-0.82 -1.95zm-2.79 -1.32l2.24 0 -1.13 -2.67 -1.11 2.67zm5.13 0.6c0,-0.43 0.08,-0.84 0.25,-1.22 0.16,-0.38 0.39,-0.71 0.67,-0.99 0.29,-0.29 0.62,-0.51 1,-0.68 0.38,-0.16 0.79,-0.24 1.22,-0.24 0.43,0 0.83,0.08 1.21,0.24 0.38,0.16 0.71,0.38 0.99,0.67 0.28,0.28 0.51,0.61 0.67,0.99 0.17,0.37 0.26,0.78 0.26,1.21l0 2.41c0,0.09 -0.02,0.17 -0.05,0.26 -0.04,0.08 -0.08,0.15 -0.14,0.21 -0.06,0.06 -0.14,0.11 -0.22,0.15 -0.08,0.03 -0.17,0.05 -0.26,0.05 -0.18,0 -0.33,-0.06 -0.44,-0.18 -0.12,-0.11 -0.19,-0.25 -0.2,-0.42 -0.26,0.21 -0.54,0.37 -0.85,0.5 -0.31,0.12 -0.63,0.18 -0.97,0.18 -0.43,0 -0.84,-0.09 -1.22,-0.25 -0.38,-0.16 -0.72,-0.39 -1,-0.67 -0.28,-0.29 -0.51,-0.62 -0.67,-1 -0.17,-0.38 -0.25,-0.78 -0.25,-1.22zm1.31 0c0,0.25 0.05,0.48 0.15,0.71 0.1,0.22 0.23,0.41 0.39,0.58 0.17,0.16 0.36,0.29 0.58,0.39 0.22,0.09 0.46,0.14 0.71,0.14 0.25,0 0.49,-0.05 0.71,-0.14 0.22,-0.1 0.41,-0.23 0.58,-0.39 0.16,-0.17 0.29,-0.36 0.39,-0.58 0.09,-0.23 0.14,-0.46 0.14,-0.71 0,-0.26 -0.05,-0.49 -0.14,-0.71 -0.1,-0.22 -0.23,-0.41 -0.39,-0.58 -0.17,-0.16 -0.36,-0.29 -0.58,-0.39 -0.22,-0.09 -0.46,-0.14 -0.71,-0.14 -0.25,0 -0.49,0.05 -0.71,0.14 -0.22,0.1 -0.41,0.23 -0.58,0.39 -0.16,0.17 -0.29,0.36 -0.39,0.58 -0.1,0.22 -0.15,0.45 -0.15,0.71zm9.4 3.14c-0.34,0 -0.67,-0.06 -0.98,-0.16 -0.31,-0.1 -0.59,-0.25 -0.85,-0.43l0 2.09c0,0.18 -0.06,0.33 -0.19,0.46 -0.13,0.12 -0.28,0.18 -0.47,0.18 -0.19,0 -0.34,-0.06 -0.47,-0.18 -0.12,-0.13 -0.18,-0.28 -0.18,-0.46l0 -7.13c0,-0.18 0.06,-0.34 0.18,-0.46 0.13,-0.12 0.28,-0.18 0.47,-0.18 0.08,0 0.16,0.01 0.24,0.04 0.08,0.03 0.15,0.07 0.21,0.13 0.06,0.05 0.1,0.11 0.14,0.19 0.04,0.07 0.06,0.15 0.07,0.23 0.26,-0.18 0.54,-0.33 0.85,-0.44 0.31,-0.1 0.64,-0.15 0.98,-0.15 0.43,0 0.84,0.08 1.22,0.24 0.38,0.17 0.71,0.39 0.99,0.68 0.28,0.28 0.51,0.61 0.67,0.99 0.17,0.38 0.25,0.79 0.25,1.22 0,0.44 -0.08,0.84 -0.25,1.22 -0.16,0.38 -0.39,0.71 -0.67,1 -0.28,0.28 -0.61,0.51 -0.99,0.67 -0.38,0.16 -0.79,0.25 -1.22,0.25zm-1.82 -3.14c0,0.25 0.05,0.49 0.15,0.71 0.09,0.22 0.22,0.41 0.39,0.58 0.16,0.16 0.35,0.29 0.57,0.39 0.22,0.09 0.46,0.14 0.71,0.14 0.25,0 0.49,-0.05 0.71,-0.14 0.22,-0.1 0.41,-0.23 0.57,-0.39 0.17,-0.17 0.3,-0.36 0.39,-0.58 0.1,-0.22 0.14,-0.46 0.14,-0.71 0,-0.25 -0.04,-0.48 -0.14,-0.7 -0.09,-0.22 -0.22,-0.41 -0.39,-0.58 -0.16,-0.16 -0.35,-0.29 -0.57,-0.39 -0.22,-0.09 -0.46,-0.14 -0.71,-0.14 -0.25,0 -0.49,0.05 -0.71,0.14 -0.22,0.1 -0.41,0.23 -0.57,0.39 -0.17,0.17 -0.3,0.36 -0.39,0.58 -0.1,0.22 -0.15,0.45 -0.15,0.7zm7.2 -4.71c0,-0.19 -0.07,-0.34 -0.19,-0.46 -0.13,-0.12 -0.28,-0.19 -0.47,-0.19 -0.18,0 -0.34,0.07 -0.47,0.19 -0.13,0.12 -0.19,0.27 -0.19,0.46l0 7.12c0,0.19 0.06,0.34 0.19,0.46 0.13,0.13 0.29,0.19 0.47,0.19 0.19,0 0.34,-0.06 0.47,-0.19 0.12,-0.12 0.19,-0.27 0.19,-0.46l0 -7.12zm0.94 4.71c0,-0.43 0.09,-0.84 0.25,-1.22 0.16,-0.38 0.39,-0.71 0.67,-0.99 0.29,-0.29 0.62,-0.51 1,-0.68 0.38,-0.16 0.79,-0.24 1.22,-0.24 0.43,0 0.83,0.08 1.21,0.24 0.38,0.16 0.71,0.38 0.99,0.67 0.28,0.28 0.51,0.61 0.68,0.99 0.16,0.37 0.25,0.78 0.25,1.21l0 2.41c0,0.09 -0.01,0.17 -0.05,0.26 -0.04,0.08 -0.08,0.15 -0.14,0.21 -0.06,0.06 -0.13,0.11 -0.22,0.15 -0.08,0.03 -0.17,0.05 -0.26,0.05 -0.18,0 -0.32,-0.06 -0.44,-0.18 -0.12,-0.11 -0.18,-0.25 -0.2,-0.42 -0.26,0.21 -0.54,0.37 -0.85,0.5 -0.31,0.12 -0.63,0.18 -0.97,0.18 -0.43,0 -0.84,-0.09 -1.22,-0.25 -0.38,-0.16 -0.71,-0.39 -1,-0.67 -0.28,-0.29 -0.51,-0.62 -0.67,-1 -0.16,-0.38 -0.25,-0.78 -0.25,-1.22zm1.32 0c0,0.25 0.04,0.48 0.14,0.71 0.1,0.22 0.23,0.41 0.39,0.58 0.17,0.16 0.36,0.29 0.58,0.39 0.22,0.09 0.46,0.14 0.71,0.14 0.25,0 0.49,-0.05 0.71,-0.14 0.22,-0.1 0.42,-0.23 0.58,-0.39 0.16,-0.17 0.29,-0.36 0.39,-0.58 0.09,-0.23 0.14,-0.46 0.14,-0.71 0,-0.26 -0.05,-0.49 -0.14,-0.71 -0.1,-0.22 -0.23,-0.41 -0.39,-0.58 -0.16,-0.16 -0.36,-0.29 -0.58,-0.39 -0.22,-0.09 -0.46,-0.14 -0.71,-0.14 -0.25,0 -0.49,0.05 -0.71,0.14 -0.22,0.1 -0.41,0.23 -0.58,0.39 -0.16,0.17 -0.29,0.36 -0.39,0.58 -0.1,0.22 -0.14,0.45 -0.14,0.71zm10.06 3.06c-0.19,0 -0.34,-0.06 -0.47,-0.19 -0.12,-0.12 -0.19,-0.27 -0.19,-0.46l0 -7.12c0,-0.19 0.07,-0.34 0.19,-0.46 0.13,-0.12 0.28,-0.19 0.46,-0.19l2.32 0c0.32,0 0.62,0.06 0.9,0.18 0.28,0.12 0.52,0.29 0.73,0.5 0.21,0.21 0.37,0.45 0.49,0.73 0.12,0.28 0.19,0.58 0.19,0.9 0,0.33 -0.07,0.63 -0.19,0.9 -0.13,0.28 -0.3,0.53 -0.51,0.74 0.31,0.23 0.56,0.51 0.75,0.86 0.18,0.34 0.27,0.72 0.27,1.14 0,0.35 -0.06,0.67 -0.19,0.97 -0.13,0.3 -0.32,0.56 -0.55,0.78 -0.23,0.22 -0.5,0.4 -0.81,0.53 -0.31,0.12 -0.64,0.19 -0.99,0.19l-2.4 0zm0.66 -3.79l0 2.47 1.69 0c0.18,0 0.35,-0.03 0.5,-0.1 0.16,-0.07 0.29,-0.16 0.4,-0.28 0.12,-0.11 0.21,-0.25 0.28,-0.4 0.07,-0.15 0.1,-0.31 0.1,-0.47 0,-0.17 -0.03,-0.33 -0.1,-0.48 -0.07,-0.15 -0.16,-0.28 -0.28,-0.39 -0.11,-0.1 -0.25,-0.19 -0.41,-0.25 -0.15,-0.07 -0.32,-0.1 -0.49,-0.1l-1.69 0zm0 -3.31l0 2.13 1.61 0c0.15,-0.01 0.29,-0.04 0.41,-0.11 0.13,-0.06 0.23,-0.15 0.32,-0.25 0.1,-0.1 0.17,-0.22 0.22,-0.34 0.05,-0.13 0.08,-0.26 0.08,-0.4 0,-0.14 -0.03,-0.27 -0.09,-0.39 -0.05,-0.13 -0.13,-0.24 -0.23,-0.33 -0.09,-0.1 -0.2,-0.18 -0.33,-0.23 -0.13,-0.05 -0.26,-0.08 -0.41,-0.08l-1.58 0zm5.25 1.54c0,-0.19 0.06,-0.34 0.19,-0.46 0.13,-0.13 0.29,-0.19 0.47,-0.19 0.18,0 0.33,0.06 0.46,0.19 0.13,0.12 0.19,0.27 0.19,0.46l0 2.52c0,0.26 0.04,0.5 0.1,0.71 0.07,0.22 0.16,0.4 0.28,0.55 0.12,0.15 0.27,0.27 0.44,0.35 0.17,0.09 0.37,0.13 0.59,0.13 0.22,0 0.42,-0.05 0.6,-0.13 0.19,-0.09 0.35,-0.21 0.49,-0.36 0.14,-0.15 0.25,-0.33 0.32,-0.54 0.08,-0.2 0.12,-0.43 0.12,-0.68l0 -2.53c0,-0.19 0.06,-0.34 0.19,-0.47 0.12,-0.12 0.28,-0.18 0.46,-0.18 0.09,0 0.17,0.01 0.26,0.05 0.08,0.03 0.15,0.08 0.21,0.13 0.06,0.06 0.1,0.13 0.14,0.21 0.03,0.08 0.05,0.16 0.05,0.26l0 4.89c0,0.1 -0.02,0.18 -0.05,0.26 -0.04,0.08 -0.08,0.15 -0.15,0.21 -0.06,0.06 -0.13,0.1 -0.21,0.14 -0.08,0.03 -0.17,0.05 -0.26,0.05 -0.19,0 -0.34,-0.06 -0.46,-0.19 -0.12,-0.13 -0.18,-0.28 -0.18,-0.47l0 -0.09c-0.24,0.24 -0.51,0.42 -0.79,0.55 -0.29,0.14 -0.59,0.2 -0.9,0.2 -0.38,0 -0.73,-0.08 -1.04,-0.23 -0.32,-0.15 -0.59,-0.37 -0.81,-0.64 -0.23,-0.27 -0.4,-0.59 -0.53,-0.97 -0.12,-0.37 -0.18,-0.78 -0.18,-1.22l0 -2.51zm8.68 3.02c0.11,0.04 0.22,0.07 0.35,0.11 0.12,0.04 0.24,0.09 0.34,0.15 0.11,0.06 0.2,0.13 0.27,0.22 0.07,0.09 0.1,0.2 0.1,0.32 0,0.11 -0.02,0.2 -0.08,0.28 -0.05,0.08 -0.12,0.15 -0.21,0.2 -0.09,0.06 -0.19,0.1 -0.3,0.13 -0.12,0.03 -0.23,0.05 -0.35,0.05 -0.27,0 -0.5,-0.05 -0.68,-0.14 -0.17,-0.1 -0.33,-0.25 -0.47,-0.45 -0.09,-0.12 -0.19,-0.2 -0.3,-0.24 -0.11,-0.05 -0.22,-0.08 -0.32,-0.07 -0.11,0.01 -0.2,0.04 -0.29,0.09 -0.09,0.05 -0.15,0.12 -0.2,0.2 -0.05,0.08 -0.08,0.18 -0.08,0.29 0,0.11 0.03,0.23 0.1,0.36 0.11,0.2 0.24,0.37 0.41,0.51 0.17,0.14 0.36,0.26 0.56,0.35 0.2,0.09 0.42,0.15 0.64,0.19 0.22,0.05 0.43,0.07 0.64,0.07 0.31,0 0.61,-0.05 0.88,-0.15 0.27,-0.09 0.5,-0.23 0.7,-0.39 0.19,-0.17 0.35,-0.37 0.46,-0.59 0.11,-0.23 0.17,-0.47 0.17,-0.73 0,-0.28 -0.06,-0.52 -0.16,-0.72 -0.11,-0.2 -0.25,-0.37 -0.44,-0.51 -0.18,-0.14 -0.39,-0.25 -0.63,-0.35 -0.23,-0.1 -0.48,-0.19 -0.74,-0.27 -0.17,-0.05 -0.32,-0.1 -0.45,-0.15 -0.14,-0.05 -0.25,-0.1 -0.35,-0.17 -0.1,-0.06 -0.18,-0.13 -0.24,-0.21 -0.05,-0.08 -0.08,-0.17 -0.08,-0.27 0,-0.21 0.09,-0.37 0.27,-0.47 0.18,-0.1 0.4,-0.15 0.67,-0.15 0.12,0 0.22,0.02 0.32,0.05 0.09,0.03 0.18,0.07 0.27,0.11 0.08,0.05 0.17,0.11 0.25,0.17 0.08,0.06 0.17,0.13 0.26,0.2 0.12,0.05 0.23,0.06 0.35,0.02 0.12,-0.03 0.22,-0.09 0.3,-0.18 0.07,-0.07 0.12,-0.17 0.13,-0.28 0.02,-0.11 0,-0.23 -0.06,-0.36 -0.08,-0.15 -0.18,-0.28 -0.32,-0.39 -0.14,-0.11 -0.3,-0.2 -0.48,-0.28 -0.17,-0.07 -0.36,-0.12 -0.55,-0.16 -0.19,-0.04 -0.38,-0.06 -0.56,-0.06 -0.29,0 -0.55,0.04 -0.82,0.13 -0.26,0.09 -0.49,0.21 -0.69,0.36 -0.19,0.16 -0.35,0.35 -0.48,0.57 -0.12,0.22 -0.18,0.47 -0.18,0.75 0,0.26 0.06,0.49 0.18,0.68 0.11,0.2 0.27,0.36 0.46,0.51 0.2,0.14 0.42,0.26 0.66,0.37 0.25,0.11 0.51,0.21 0.77,0.3zm3.24 -5.08c0,0.1 0.02,0.2 0.06,0.29 0.04,0.08 0.09,0.16 0.15,0.23 0.07,0.06 0.15,0.12 0.23,0.15 0.09,0.04 0.19,0.06 0.29,0.06 0.1,0 0.19,-0.02 0.28,-0.06 0.09,-0.03 0.16,-0.09 0.23,-0.15 0.07,-0.07 0.12,-0.15 0.16,-0.23 0.04,-0.09 0.06,-0.19 0.06,-0.29 0,-0.1 -0.02,-0.19 -0.06,-0.29 -0.04,-0.09 -0.09,-0.16 -0.16,-0.23 -0.07,-0.07 -0.14,-0.12 -0.23,-0.15 -0.09,-0.04 -0.18,-0.06 -0.28,-0.06 -0.1,0 -0.2,0.02 -0.29,0.06 -0.08,0.03 -0.16,0.08 -0.23,0.15 -0.06,0.07 -0.11,0.14 -0.15,0.23 -0.04,0.1 -0.06,0.19 -0.06,0.29zm1.39 2.08c0,-0.1 -0.02,-0.18 -0.05,-0.26 -0.03,-0.08 -0.08,-0.15 -0.13,-0.21 -0.06,-0.06 -0.13,-0.1 -0.21,-0.14 -0.08,-0.03 -0.16,-0.05 -0.26,-0.05 -0.09,0 -0.17,0.02 -0.25,0.05 -0.08,0.04 -0.15,0.08 -0.22,0.14 -0.06,0.06 -0.11,0.13 -0.14,0.21 -0.04,0.08 -0.05,0.16 -0.05,0.26l0 4.89c0,0.09 0.01,0.17 0.05,0.25 0.03,0.08 0.08,0.15 0.14,0.21 0.06,0.06 0.13,0.1 0.21,0.14 0.09,0.03 0.17,0.05 0.26,0.05 0.18,0 0.34,-0.07 0.46,-0.19 0.13,-0.13 0.19,-0.28 0.19,-0.46l0 -4.89zm6.86 2.38l0 2.53c0,0.18 -0.06,0.33 -0.18,0.46 -0.13,0.12 -0.29,0.18 -0.47,0.18 -0.19,0 -0.35,-0.06 -0.47,-0.18 -0.13,-0.13 -0.19,-0.28 -0.19,-0.46l0 -2.52c-0.01,-0.26 -0.04,-0.5 -0.1,-0.71 -0.06,-0.21 -0.16,-0.39 -0.28,-0.54 -0.12,-0.15 -0.26,-0.27 -0.44,-0.35 -0.17,-0.09 -0.37,-0.13 -0.59,-0.13 -0.21,0 -0.42,0.04 -0.6,0.13 -0.19,0.08 -0.35,0.2 -0.49,0.35 -0.13,0.16 -0.24,0.34 -0.32,0.55 -0.08,0.2 -0.11,0.43 -0.11,0.67l0 2.53c0,0.18 -0.07,0.34 -0.19,0.46 -0.13,0.13 -0.28,0.19 -0.47,0.19 -0.09,0 -0.17,-0.02 -0.25,-0.05 -0.08,-0.04 -0.15,-0.08 -0.21,-0.14 -0.06,-0.06 -0.11,-0.13 -0.14,-0.21 -0.04,-0.08 -0.06,-0.16 -0.06,-0.25l0 -4.9c0,-0.09 0.02,-0.18 0.06,-0.26 0.03,-0.08 0.08,-0.14 0.14,-0.2 0.06,-0.06 0.13,-0.11 0.21,-0.14 0.08,-0.04 0.17,-0.06 0.26,-0.06 0.09,0 0.18,0.02 0.26,0.06 0.08,0.03 0.14,0.08 0.2,0.14 0.06,0.06 0.1,0.13 0.14,0.21 0.03,0.08 0.05,0.17 0.05,0.26l-0.01 0.1c0.24,-0.23 0.5,-0.42 0.79,-0.55 0.28,-0.14 0.58,-0.2 0.89,-0.2 0.39,0 0.74,0.07 1.05,0.23 0.32,0.15 0.59,0.36 0.81,0.63 0.23,0.27 0.4,0.59 0.53,0.96 0.12,0.37 0.18,0.77 0.18,1.21zm6.52 0.69c0.19,0 0.35,-0.06 0.47,-0.18 0.12,-0.11 0.18,-0.26 0.18,-0.45 -0.01,-0.43 -0.09,-0.83 -0.26,-1.21 -0.17,-0.37 -0.4,-0.7 -0.68,-0.98 -0.29,-0.28 -0.62,-0.5 -1,-0.66 -0.37,-0.16 -0.78,-0.24 -1.21,-0.24 -0.43,0 -0.84,0.08 -1.22,0.24 -0.38,0.17 -0.72,0.39 -1,0.67 -0.29,0.29 -0.51,0.62 -0.68,1 -0.16,0.38 -0.25,0.79 -0.25,1.22 0,0.44 0.09,0.85 0.25,1.23 0.17,0.38 0.39,0.71 0.68,1 0.28,0.28 0.62,0.5 1,0.66 0.38,0.17 0.79,0.25 1.22,0.25 0.25,0 0.48,-0.02 0.68,-0.06 0.2,-0.04 0.38,-0.09 0.55,-0.16 0.16,-0.06 0.31,-0.14 0.43,-0.22 0.13,-0.09 0.24,-0.18 0.35,-0.28 0.15,-0.12 0.23,-0.27 0.24,-0.43 0.01,-0.16 -0.02,-0.3 -0.11,-0.43 -0.03,-0.06 -0.08,-0.12 -0.13,-0.17 -0.05,-0.05 -0.11,-0.08 -0.18,-0.11 -0.1,-0.03 -0.21,-0.04 -0.32,-0.03 -0.11,0.02 -0.22,0.07 -0.33,0.16 -0.13,0.14 -0.29,0.25 -0.48,0.34 -0.18,0.08 -0.42,0.12 -0.7,0.12 -0.2,0 -0.39,-0.03 -0.57,-0.09 -0.19,-0.06 -0.35,-0.15 -0.5,-0.27 -0.15,-0.11 -0.28,-0.25 -0.38,-0.41 -0.11,-0.16 -0.19,-0.33 -0.25,-0.51l4.2 0zm-4.24 -1.09c0.05,-0.2 0.12,-0.38 0.23,-0.55 0.1,-0.17 0.23,-0.32 0.39,-0.44 0.15,-0.12 0.32,-0.22 0.52,-0.29 0.19,-0.07 0.4,-0.1 0.62,-0.1 0.22,0 0.43,0.03 0.62,0.1 0.2,0.07 0.38,0.16 0.53,0.29 0.16,0.12 0.29,0.26 0.4,0.43 0.11,0.17 0.18,0.35 0.23,0.56l-3.54 0zm7.65 1.02c0.1,0.04 0.22,0.07 0.35,0.11 0.12,0.04 0.23,0.09 0.34,0.15 0.11,0.06 0.19,0.13 0.26,0.22 0.07,0.09 0.11,0.2 0.11,0.32 0,0.11 -0.03,0.2 -0.08,0.28 -0.05,0.08 -0.12,0.15 -0.21,0.2 -0.09,0.06 -0.2,0.1 -0.31,0.13 -0.11,0.03 -0.23,0.05 -0.35,0.05 -0.27,0 -0.49,-0.05 -0.67,-0.14 -0.18,-0.1 -0.33,-0.25 -0.47,-0.45 -0.1,-0.12 -0.2,-0.2 -0.31,-0.24 -0.11,-0.05 -0.21,-0.08 -0.32,-0.07 -0.1,0.01 -0.2,0.04 -0.28,0.09 -0.09,0.05 -0.16,0.12 -0.21,0.2 -0.05,0.08 -0.07,0.18 -0.07,0.29 -0.01,0.11 0.03,0.23 0.1,0.36 0.1,0.2 0.24,0.37 0.41,0.51 0.17,0.14 0.35,0.26 0.56,0.35 0.2,0.09 0.41,0.15 0.63,0.19 0.23,0.05 0.44,0.07 0.64,0.07 0.32,0 0.61,-0.05 0.88,-0.15 0.27,-0.09 0.5,-0.23 0.7,-0.39 0.2,-0.17 0.36,-0.37 0.47,-0.59 0.11,-0.23 0.16,-0.47 0.16,-0.73 0,-0.28 -0.05,-0.52 -0.16,-0.72 -0.1,-0.2 -0.25,-0.37 -0.43,-0.51 -0.18,-0.14 -0.39,-0.25 -0.63,-0.35 -0.24,-0.1 -0.49,-0.19 -0.75,-0.27 -0.16,-0.05 -0.31,-0.1 -0.45,-0.15 -0.13,-0.05 -0.25,-0.1 -0.35,-0.17 -0.09,-0.06 -0.17,-0.13 -0.23,-0.21 -0.06,-0.08 -0.09,-0.17 -0.09,-0.27 0,-0.21 0.09,-0.37 0.27,-0.47 0.18,-0.1 0.41,-0.15 0.67,-0.15 0.12,0 0.23,0.02 0.32,0.05 0.1,0.03 0.19,0.07 0.27,0.11 0.09,0.05 0.17,0.11 0.26,0.17 0.08,0.06 0.17,0.13 0.26,0.2 0.11,0.05 0.23,0.06 0.35,0.02 0.12,-0.03 0.21,-0.09 0.29,-0.18 0.08,-0.07 0.12,-0.17 0.14,-0.28 0.02,-0.11 0,-0.23 -0.07,-0.36 -0.07,-0.15 -0.18,-0.28 -0.32,-0.39 -0.14,-0.11 -0.3,-0.2 -0.47,-0.28 -0.18,-0.07 -0.36,-0.12 -0.55,-0.16 -0.2,-0.04 -0.38,-0.06 -0.57,-0.06 -0.28,0 -0.55,0.04 -0.81,0.13 -0.26,0.09 -0.49,0.21 -0.69,0.36 -0.2,0.16 -0.36,0.35 -0.48,0.57 -0.12,0.22 -0.18,0.47 -0.18,0.75 0,0.26 0.06,0.49 0.17,0.68 0.12,0.2 0.27,0.36 0.47,0.51 0.19,0.14 0.41,0.26 0.66,0.37 0.25,0.11 0.5,0.21 0.77,0.3zm5.13 0c0.11,0.04 0.23,0.07 0.35,0.11 0.12,0.04 0.24,0.09 0.34,0.15 0.11,0.06 0.2,0.13 0.27,0.22 0.07,0.09 0.1,0.2 0.1,0.32 0,0.11 -0.02,0.2 -0.08,0.28 -0.05,0.08 -0.12,0.15 -0.21,0.2 -0.09,0.06 -0.19,0.1 -0.3,0.13 -0.12,0.03 -0.23,0.05 -0.35,0.05 -0.27,0 -0.5,-0.05 -0.68,-0.14 -0.17,-0.1 -0.33,-0.25 -0.47,-0.45 -0.09,-0.12 -0.19,-0.2 -0.3,-0.24 -0.11,-0.05 -0.22,-0.08 -0.32,-0.07 -0.11,0.01 -0.2,0.04 -0.29,0.09 -0.09,0.05 -0.15,0.12 -0.2,0.2 -0.05,0.08 -0.08,0.18 -0.08,0.29 0,0.11 0.03,0.23 0.1,0.36 0.11,0.2 0.24,0.37 0.41,0.51 0.17,0.14 0.36,0.26 0.56,0.35 0.2,0.09 0.42,0.15 0.64,0.19 0.22,0.05 0.43,0.07 0.64,0.07 0.31,0 0.61,-0.05 0.88,-0.15 0.27,-0.09 0.5,-0.23 0.7,-0.39 0.19,-0.17 0.35,-0.37 0.46,-0.59 0.11,-0.23 0.17,-0.47 0.17,-0.73 0,-0.28 -0.06,-0.52 -0.16,-0.72 -0.11,-0.2 -0.25,-0.37 -0.44,-0.51 -0.18,-0.14 -0.39,-0.25 -0.63,-0.35 -0.23,-0.1 -0.48,-0.19 -0.74,-0.27 -0.17,-0.05 -0.32,-0.1 -0.45,-0.15 -0.14,-0.05 -0.25,-0.1 -0.35,-0.17 -0.1,-0.06 -0.18,-0.13 -0.24,-0.21 -0.05,-0.08 -0.08,-0.17 -0.08,-0.27 0,-0.21 0.09,-0.37 0.27,-0.47 0.18,-0.1 0.4,-0.15 0.67,-0.15 0.12,0 0.22,0.02 0.32,0.05 0.09,0.03 0.18,0.07 0.27,0.11 0.08,0.05 0.17,0.11 0.25,0.17 0.08,0.06 0.17,0.13 0.26,0.2 0.12,0.05 0.23,0.06 0.35,0.02 0.12,-0.03 0.22,-0.09 0.3,-0.18 0.07,-0.07 0.12,-0.17 0.13,-0.28 0.02,-0.11 0,-0.23 -0.06,-0.36 -0.08,-0.15 -0.18,-0.28 -0.32,-0.39 -0.14,-0.11 -0.3,-0.2 -0.48,-0.28 -0.17,-0.07 -0.36,-0.12 -0.55,-0.16 -0.19,-0.04 -0.38,-0.06 -0.56,-0.06 -0.28,0 -0.55,0.04 -0.82,0.13 -0.26,0.09 -0.49,0.21 -0.69,0.36 -0.19,0.16 -0.35,0.35 -0.48,0.57 -0.12,0.22 -0.18,0.47 -0.18,0.75 0,0.26 0.06,0.49 0.18,0.68 0.11,0.2 0.27,0.36 0.46,0.51 0.2,0.14 0.42,0.26 0.66,0.37 0.25,0.11 0.51,0.21 0.77,0.3z"/>
    <path class="fil3" d="M5.39 9.26l-3.33 0 -0.81 1.94c-0.04,0.09 -0.08,0.16 -0.15,0.22 -0.06,0.06 -0.13,0.11 -0.21,0.13 -0.08,0.03 -0.17,0.05 -0.25,0.04 -0.09,0 -0.18,-0.02 -0.27,-0.05 -0.17,-0.08 -0.28,-0.2 -0.34,-0.36 -0.05,-0.16 -0.04,-0.33 0.04,-0.5l3.08 -7.1c0.06,-0.12 0.14,-0.22 0.24,-0.29 0.1,-0.07 0.22,-0.11 0.36,-0.11 0.12,0 0.24,0.04 0.35,0.1 0.11,0.07 0.19,0.17 0.24,0.3l3.05 7.1c0.07,0.17 0.08,0.34 0.03,0.5 -0.05,0.16 -0.16,0.28 -0.33,0.36 -0.08,0.04 -0.17,0.06 -0.25,0.06 -0.09,0 -0.17,-0.01 -0.25,-0.04 -0.08,-0.03 -0.15,-0.08 -0.22,-0.14 -0.07,-0.06 -0.12,-0.13 -0.16,-0.21l-0.82 -1.95zm-2.79 -1.32l2.24 0 -1.13 -2.67 -1.11 2.67zm5.13 0.6c0,-0.43 0.08,-0.84 0.25,-1.22 0.16,-0.38 0.39,-0.71 0.67,-0.99 0.29,-0.29 0.62,-0.51 1,-0.68 0.38,-0.16 0.79,-0.24 1.22,-0.24 0.43,0 0.83,0.08 1.21,0.24 0.38,0.16 0.71,0.38 0.99,0.67 0.28,0.28 0.51,0.61 0.67,0.99 0.17,0.37 0.26,0.78 0.26,1.21l0 2.41c0,0.09 -0.02,0.17 -0.05,0.26 -0.04,0.08 -0.08,0.15 -0.14,0.21 -0.06,0.06 -0.14,0.11 -0.22,0.15 -0.08,0.03 -0.17,0.05 -0.26,0.05 -0.18,0 -0.33,-0.06 -0.44,-0.18 -0.12,-0.11 -0.19,-0.25 -0.2,-0.42 -0.26,0.21 -0.54,0.37 -0.85,0.5 -0.31,0.12 -0.63,0.18 -0.97,0.18 -0.43,0 -0.84,-0.09 -1.22,-0.25 -0.38,-0.16 -0.72,-0.39 -1,-0.67 -0.28,-0.29 -0.51,-0.62 -0.67,-1 -0.17,-0.38 -0.25,-0.78 -0.25,-1.22zm1.31 0c0,0.25 0.05,0.48 0.15,0.71 0.1,0.22 0.23,0.41 0.39,0.58 0.17,0.16 0.36,0.29 0.58,0.39 0.22,0.09 0.46,0.14 0.71,0.14 0.25,0 0.49,-0.05 0.71,-0.14 0.22,-0.1 0.41,-0.23 0.58,-0.39 0.16,-0.17 0.29,-0.36 0.39,-0.58 0.09,-0.23 0.14,-0.46 0.14,-0.71 0,-0.26 -0.05,-0.49 -0.14,-0.71 -0.1,-0.22 -0.23,-0.41 -0.39,-0.58 -0.17,-0.16 -0.36,-0.29 -0.58,-0.39 -0.22,-0.09 -0.46,-0.14 -0.71,-0.14 -0.25,0 -0.49,0.05 -0.71,0.14 -0.22,0.1 -0.41,0.23 -0.58,0.39 -0.16,0.17 -0.29,0.36 -0.39,0.58 -0.1,0.22 -0.15,0.45 -0.15,0.71zm9.4 3.14c-0.34,0 -0.67,-0.06 -0.98,-0.16 -0.31,-0.1 -0.59,-0.25 -0.85,-0.43l0 2.09c0,0.18 -0.06,0.33 -0.19,0.46 -0.13,0.12 -0.28,0.18 -0.47,0.18 -0.19,0 -0.34,-0.06 -0.47,-0.18 -0.12,-0.13 -0.18,-0.28 -0.18,-0.46l0 -7.13c0,-0.18 0.06,-0.34 0.18,-0.46 0.13,-0.12 0.28,-0.18 0.47,-0.18 0.08,0 0.16,0.01 0.24,0.04 0.08,0.03 0.15,0.07 0.21,0.13 0.06,0.05 0.1,0.11 0.14,0.19 0.04,0.07 0.06,0.15 0.07,0.23 0.26,-0.18 0.54,-0.33 0.85,-0.44 0.31,-0.1 0.64,-0.15 0.98,-0.15 0.43,0 0.84,0.08 1.22,0.24 0.38,0.17 0.71,0.39 0.99,0.68 0.28,0.28 0.51,0.61 0.67,0.99 0.17,0.38 0.25,0.79 0.25,1.22 0,0.44 -0.08,0.84 -0.25,1.22 -0.16,0.38 -0.39,0.71 -0.67,1 -0.28,0.28 -0.61,0.51 -0.99,0.67 -0.38,0.16 -0.79,0.25 -1.22,0.25zm-1.82 -3.14c0,0.25 0.05,0.49 0.15,0.71 0.09,0.22 0.22,0.41 0.39,0.58 0.16,0.16 0.35,0.29 0.57,0.39 0.22,0.09 0.46,0.14 0.71,0.14 0.25,0 0.49,-0.05 0.71,-0.14 0.22,-0.1 0.41,-0.23 0.57,-0.39 0.17,-0.17 0.3,-0.36 0.39,-0.58 0.1,-0.22 0.14,-0.46 0.14,-0.71 0,-0.25 -0.04,-0.48 -0.14,-0.7 -0.09,-0.22 -0.22,-0.41 -0.39,-0.58 -0.16,-0.16 -0.35,-0.29 -0.57,-0.39 -0.22,-0.09 -0.46,-0.14 -0.71,-0.14 -0.25,0 -0.49,0.05 -0.71,0.14 -0.22,0.1 -0.41,0.23 -0.57,0.39 -0.17,0.17 -0.3,0.36 -0.39,0.58 -0.1,0.22 -0.15,0.45 -0.15,0.7zm7.2 -4.71c0,-0.19 -0.07,-0.34 -0.19,-0.46 -0.13,-0.12 -0.28,-0.19 -0.47,-0.19 -0.18,0 -0.34,0.07 -0.47,0.19 -0.13,0.12 -0.19,0.27 -0.19,0.46l0 7.12c0,0.19 0.06,0.34 0.19,0.46 0.13,0.13 0.29,0.19 0.47,0.19 0.19,0 0.34,-0.06 0.47,-0.19 0.12,-0.12 0.19,-0.27 0.19,-0.46l0 -7.12zm0.94 4.71c0,-0.43 0.09,-0.84 0.25,-1.22 0.16,-0.38 0.39,-0.71 0.67,-0.99 0.29,-0.29 0.62,-0.51 1,-0.68 0.38,-0.16 0.79,-0.24 1.22,-0.24 0.43,0 0.83,0.08 1.21,0.24 0.38,0.16 0.71,0.38 0.99,0.67 0.28,0.28 0.51,0.61 0.68,0.99 0.16,0.37 0.25,0.78 0.25,1.21l0 2.41c0,0.09 -0.01,0.17 -0.05,0.26 -0.04,0.08 -0.08,0.15 -0.14,0.21 -0.06,0.06 -0.13,0.11 -0.22,0.15 -0.08,0.03 -0.17,0.05 -0.26,0.05 -0.18,0 -0.32,-0.06 -0.44,-0.18 -0.12,-0.11 -0.18,-0.25 -0.2,-0.42 -0.26,0.21 -0.54,0.37 -0.85,0.5 -0.31,0.12 -0.63,0.18 -0.97,0.18 -0.43,0 -0.84,-0.09 -1.22,-0.25 -0.38,-0.16 -0.71,-0.39 -1,-0.67 -0.28,-0.29 -0.51,-0.62 -0.67,-1 -0.16,-0.38 -0.25,-0.78 -0.25,-1.22zm1.32 0c0,0.25 0.04,0.48 0.14,0.71 0.1,0.22 0.23,0.41 0.39,0.58 0.17,0.16 0.36,0.29 0.58,0.39 0.22,0.09 0.46,0.14 0.71,0.14 0.25,0 0.49,-0.05 0.71,-0.14 0.22,-0.1 0.42,-0.23 0.58,-0.39 0.16,-0.17 0.29,-0.36 0.39,-0.58 0.09,-0.23 0.14,-0.46 0.14,-0.71 0,-0.26 -0.05,-0.49 -0.14,-0.71 -0.1,-0.22 -0.23,-0.41 -0.39,-0.58 -0.16,-0.16 -0.36,-0.29 -0.58,-0.39 -0.22,-0.09 -0.46,-0.14 -0.71,-0.14 -0.25,0 -0.49,0.05 -0.71,0.14 -0.22,0.1 -0.41,0.23 -0.58,0.39 -0.16,0.17 -0.29,0.36 -0.39,0.58 -0.1,0.22 -0.14,0.45 -0.14,0.71z"/>
    <path class="fil4" d="M36.14 11.6c-0.19,0 -0.34,-0.06 -0.47,-0.19 -0.12,-0.12 -0.19,-0.27 -0.19,-0.46l0 -7.12c0,-0.19 0.07,-0.34 0.19,-0.46 0.13,-0.12 0.28,-0.19 0.46,-0.19l2.32 0c0.32,0 0.62,0.06 0.9,0.18 0.28,0.12 0.52,0.29 0.73,0.5 0.21,0.21 0.37,0.45 0.49,0.73 0.12,0.28 0.19,0.58 0.19,0.9 0,0.33 -0.07,0.63 -0.19,0.9 -0.13,0.28 -0.3,0.53 -0.51,0.74 0.31,0.23 0.56,0.51 0.75,0.86 0.18,0.34 0.27,0.72 0.27,1.14 0,0.35 -0.06,0.67 -0.19,0.97 -0.13,0.3 -0.32,0.56 -0.55,0.78 -0.23,0.22 -0.5,0.4 -0.81,0.53 -0.31,0.12 -0.64,0.19 -0.99,0.19l-2.4 0zm0.66 -3.79l0 2.47 1.69 0c0.18,0 0.35,-0.03 0.5,-0.1 0.16,-0.07 0.29,-0.16 0.4,-0.28 0.12,-0.11 0.21,-0.25 0.28,-0.4 0.07,-0.15 0.1,-0.31 0.1,-0.47 0,-0.17 -0.03,-0.33 -0.1,-0.48 -0.07,-0.15 -0.16,-0.28 -0.28,-0.39 -0.11,-0.1 -0.25,-0.19 -0.4,-0.25 -0.16,-0.07 -0.33,-0.1 -0.5,-0.1l-1.69 0zm0 -3.31l0 2.13 1.62 0c0.14,-0.01 0.28,-0.04 0.4,-0.11 0.13,-0.06 0.23,-0.15 0.32,-0.25 0.1,-0.1 0.17,-0.22 0.22,-0.34 0.05,-0.13 0.08,-0.26 0.08,-0.4 0,-0.14 -0.03,-0.27 -0.08,-0.39 -0.06,-0.13 -0.14,-0.24 -0.23,-0.33 -0.1,-0.1 -0.21,-0.18 -0.34,-0.23 -0.13,-0.05 -0.26,-0.08 -0.41,-0.08l-1.58 0zm5.25 1.54c0,-0.19 0.06,-0.34 0.19,-0.46 0.13,-0.13 0.29,-0.19 0.47,-0.19 0.18,0 0.34,0.06 0.46,0.19 0.13,0.12 0.2,0.27 0.2,0.46l0 2.52c0,0.26 0.03,0.5 0.09,0.71 0.07,0.22 0.16,0.4 0.28,0.55 0.12,0.15 0.27,0.27 0.44,0.35 0.17,0.09 0.37,0.13 0.59,0.13 0.22,0 0.42,-0.05 0.6,-0.13 0.19,-0.09 0.35,-0.21 0.49,-0.36 0.14,-0.15 0.25,-0.33 0.32,-0.54 0.08,-0.2 0.12,-0.43 0.12,-0.68l0 -2.53c0,-0.19 0.06,-0.34 0.19,-0.47 0.12,-0.12 0.28,-0.18 0.46,-0.18 0.09,0 0.17,0.01 0.26,0.05 0.08,0.03 0.15,0.08 0.21,0.13 0.06,0.06 0.1,0.13 0.14,0.21 0.03,0.08 0.05,0.16 0.05,0.26l0 4.89c0,0.1 -0.02,0.18 -0.05,0.26 -0.04,0.08 -0.08,0.15 -0.15,0.21 -0.06,0.06 -0.13,0.1 -0.21,0.14 -0.08,0.03 -0.17,0.05 -0.26,0.05 -0.19,0 -0.34,-0.06 -0.46,-0.19 -0.12,-0.13 -0.18,-0.28 -0.18,-0.47l0 -0.09c-0.24,0.24 -0.51,0.42 -0.79,0.55 -0.29,0.14 -0.58,0.2 -0.9,0.2 -0.38,0 -0.73,-0.08 -1.04,-0.23 -0.32,-0.15 -0.59,-0.37 -0.81,-0.64 -0.23,-0.27 -0.4,-0.59 -0.53,-0.97 -0.12,-0.37 -0.18,-0.78 -0.18,-1.22l0 -2.51zm8.68 3.02c0.11,0.04 0.23,0.07 0.35,0.11 0.13,0.04 0.24,0.09 0.34,0.15 0.11,0.06 0.2,0.13 0.27,0.22 0.07,0.09 0.1,0.2 0.1,0.32 0,0.11 -0.02,0.2 -0.08,0.28 -0.05,0.08 -0.12,0.15 -0.21,0.2 -0.09,0.06 -0.19,0.1 -0.3,0.13 -0.12,0.03 -0.23,0.05 -0.35,0.05 -0.27,0 -0.5,-0.05 -0.67,-0.14 -0.18,-0.1 -0.34,-0.25 -0.48,-0.45 -0.09,-0.12 -0.19,-0.2 -0.3,-0.24 -0.11,-0.05 -0.22,-0.08 -0.32,-0.07 -0.11,0.01 -0.2,0.04 -0.29,0.09 -0.08,0.05 -0.15,0.12 -0.2,0.2 -0.05,0.08 -0.08,0.18 -0.08,0.29 0,0.11 0.03,0.23 0.1,0.36 0.11,0.2 0.24,0.37 0.41,0.51 0.17,0.14 0.36,0.26 0.56,0.35 0.21,0.09 0.42,0.15 0.64,0.19 0.22,0.05 0.43,0.07 0.64,0.07 0.31,0 0.61,-0.05 0.88,-0.15 0.27,-0.09 0.5,-0.23 0.7,-0.39 0.19,-0.17 0.35,-0.37 0.46,-0.59 0.11,-0.23 0.17,-0.47 0.17,-0.73 0,-0.28 -0.06,-0.52 -0.16,-0.72 -0.11,-0.2 -0.25,-0.37 -0.44,-0.51 -0.18,-0.14 -0.39,-0.25 -0.62,-0.35 -0.24,-0.1 -0.49,-0.19 -0.75,-0.27 -0.17,-0.05 -0.32,-0.1 -0.45,-0.15 -0.14,-0.05 -0.25,-0.1 -0.35,-0.17 -0.1,-0.06 -0.18,-0.13 -0.24,-0.21 -0.05,-0.08 -0.08,-0.17 -0.08,-0.27 0,-0.21 0.09,-0.37 0.27,-0.47 0.18,-0.1 0.4,-0.15 0.67,-0.15 0.12,0 0.22,0.02 0.32,0.05 0.09,0.03 0.18,0.07 0.27,0.11 0.08,0.05 0.17,0.11 0.25,0.17 0.08,0.06 0.17,0.13 0.26,0.2 0.12,0.05 0.23,0.06 0.35,0.02 0.12,-0.03 0.22,-0.09 0.3,-0.18 0.07,-0.07 0.12,-0.17 0.13,-0.28 0.02,-0.11 0,-0.23 -0.06,-0.36 -0.08,-0.15 -0.18,-0.28 -0.32,-0.39 -0.14,-0.11 -0.3,-0.2 -0.48,-0.28 -0.17,-0.07 -0.36,-0.12 -0.55,-0.16 -0.19,-0.04 -0.38,-0.06 -0.56,-0.06 -0.28,0 -0.55,0.04 -0.81,0.13 -0.27,0.09 -0.5,0.21 -0.69,0.36 -0.2,0.16 -0.36,0.35 -0.48,0.57 -0.13,0.22 -0.19,0.47 -0.19,0.75 0,0.26 0.06,0.49 0.18,0.68 0.11,0.2 0.27,0.36 0.46,0.51 0.2,0.14 0.42,0.26 0.66,0.37 0.25,0.11 0.51,0.21 0.77,0.3zm3.24 -5.08c0,0.1 0.02,0.2 0.06,0.29 0.04,0.08 0.09,0.16 0.16,0.23 0.06,0.06 0.14,0.12 0.22,0.15 0.09,0.04 0.19,0.06 0.29,0.06 0.1,0 0.19,-0.02 0.28,-0.06 0.09,-0.03 0.16,-0.09 0.23,-0.15 0.07,-0.07 0.12,-0.15 0.16,-0.23 0.04,-0.09 0.06,-0.19 0.06,-0.29 0,-0.1 -0.02,-0.19 -0.06,-0.29 -0.04,-0.09 -0.09,-0.16 -0.16,-0.23 -0.07,-0.07 -0.14,-0.12 -0.23,-0.15 -0.09,-0.04 -0.18,-0.06 -0.28,-0.06 -0.1,0 -0.2,0.02 -0.29,0.06 -0.08,0.03 -0.16,0.08 -0.22,0.15 -0.07,0.07 -0.12,0.14 -0.16,0.23 -0.04,0.1 -0.06,0.19 -0.06,0.29zm1.39 2.08c0,-0.1 -0.02,-0.18 -0.05,-0.26 -0.03,-0.08 -0.08,-0.15 -0.13,-0.21 -0.06,-0.06 -0.13,-0.1 -0.21,-0.14 -0.08,-0.03 -0.16,-0.05 -0.25,-0.05 -0.1,0 -0.18,0.02 -0.26,0.05 -0.08,0.04 -0.15,0.08 -0.22,0.14 -0.06,0.06 -0.11,0.13 -0.14,0.21 -0.04,0.08 -0.05,0.16 -0.05,0.26l0 4.89c0,0.09 0.01,0.17 0.05,0.25 0.03,0.08 0.08,0.15 0.14,0.21 0.06,0.06 0.13,0.1 0.21,0.14 0.09,0.03 0.17,0.05 0.26,0.05 0.18,0 0.34,-0.07 0.46,-0.19 0.13,-0.13 0.19,-0.28 0.19,-0.46l0 -4.89zm6.86 2.38l0 2.53c0,0.18 -0.06,0.33 -0.18,0.46 -0.13,0.12 -0.29,0.18 -0.47,0.18 -0.19,0 -0.34,-0.06 -0.47,-0.18 -0.13,-0.13 -0.19,-0.28 -0.19,-0.46l0 -2.52c0,-0.26 -0.04,-0.5 -0.1,-0.71 -0.06,-0.21 -0.16,-0.39 -0.28,-0.54 -0.12,-0.15 -0.26,-0.27 -0.44,-0.35 -0.17,-0.09 -0.37,-0.13 -0.58,-0.13 -0.22,0 -0.43,0.04 -0.61,0.13 -0.19,0.08 -0.35,0.2 -0.49,0.35 -0.13,0.16 -0.24,0.34 -0.32,0.55 -0.07,0.2 -0.11,0.43 -0.11,0.67l0 2.53c0,0.18 -0.07,0.34 -0.19,0.46 -0.13,0.13 -0.28,0.19 -0.47,0.19 -0.08,0 -0.17,-0.02 -0.25,-0.05 -0.08,-0.04 -0.15,-0.08 -0.21,-0.14 -0.06,-0.06 -0.11,-0.13 -0.14,-0.21 -0.04,-0.08 -0.06,-0.16 -0.06,-0.25l0 -4.9c0,-0.09 0.02,-0.18 0.06,-0.26 0.03,-0.08 0.08,-0.14 0.14,-0.2 0.06,-0.06 0.13,-0.11 0.21,-0.14 0.08,-0.04 0.17,-0.06 0.26,-0.06 0.09,0 0.18,0.02 0.26,0.06 0.08,0.03 0.14,0.08 0.2,0.14 0.06,0.06 0.1,0.13 0.14,0.21 0.03,0.08 0.05,0.17 0.05,0.26l-0.01 0.1c0.24,-0.23 0.5,-0.42 0.79,-0.55 0.28,-0.14 0.58,-0.2 0.89,-0.2 0.39,0 0.74,0.07 1.05,0.23 0.32,0.15 0.59,0.36 0.81,0.63 0.23,0.27 0.4,0.59 0.53,0.96 0.12,0.37 0.18,0.77 0.18,1.21zm6.53 0.69c0.18,0 0.34,-0.06 0.46,-0.18 0.12,-0.11 0.18,-0.26 0.18,-0.45 0,-0.43 -0.09,-0.83 -0.26,-1.21 -0.17,-0.37 -0.4,-0.7 -0.68,-0.98 -0.29,-0.28 -0.62,-0.5 -1,-0.66 -0.37,-0.16 -0.78,-0.24 -1.21,-0.24 -0.43,0 -0.84,0.08 -1.22,0.24 -0.38,0.17 -0.72,0.39 -1,0.67 -0.29,0.29 -0.51,0.62 -0.68,1 -0.16,0.38 -0.25,0.79 -0.25,1.22 0,0.44 0.09,0.85 0.25,1.23 0.17,0.38 0.39,0.71 0.68,1 0.28,0.28 0.62,0.5 1,0.66 0.38,0.17 0.79,0.25 1.22,0.25 0.25,0 0.48,-0.02 0.68,-0.06 0.2,-0.04 0.38,-0.09 0.55,-0.16 0.16,-0.06 0.31,-0.14 0.43,-0.22 0.13,-0.09 0.25,-0.18 0.35,-0.28 0.15,-0.12 0.23,-0.27 0.24,-0.43 0.01,-0.16 -0.02,-0.3 -0.11,-0.43 -0.03,-0.06 -0.08,-0.12 -0.13,-0.17 -0.05,-0.05 -0.11,-0.08 -0.18,-0.11 -0.1,-0.03 -0.21,-0.04 -0.32,-0.03 -0.11,0.02 -0.22,0.07 -0.33,0.16 -0.13,0.14 -0.29,0.25 -0.48,0.34 -0.18,0.08 -0.42,0.12 -0.7,0.12 -0.2,0 -0.39,-0.03 -0.57,-0.09 -0.19,-0.06 -0.35,-0.15 -0.5,-0.27 -0.15,-0.11 -0.28,-0.25 -0.38,-0.41 -0.11,-0.16 -0.19,-0.33 -0.25,-0.51l4.21 0zm-4.24 -1.09c0.04,-0.2 0.11,-0.38 0.22,-0.55 0.1,-0.17 0.23,-0.32 0.39,-0.44 0.15,-0.12 0.33,-0.22 0.52,-0.29 0.2,-0.07 0.4,-0.1 0.62,-0.1 0.22,0 0.43,0.03 0.62,0.1 0.2,0.07 0.38,0.16 0.54,0.29 0.15,0.12 0.28,0.26 0.39,0.43 0.11,0.17 0.18,0.35 0.23,0.56l-3.53 0zm7.64 1.02c0.11,0.04 0.22,0.07 0.35,0.11 0.12,0.04 0.24,0.09 0.34,0.15 0.11,0.06 0.19,0.13 0.26,0.22 0.07,0.09 0.11,0.2 0.11,0.32 0,0.11 -0.03,0.2 -0.08,0.28 -0.05,0.08 -0.12,0.15 -0.21,0.2 -0.09,0.06 -0.2,0.1 -0.31,0.13 -0.11,0.03 -0.23,0.05 -0.35,0.05 -0.27,0 -0.49,-0.05 -0.67,-0.14 -0.18,-0.1 -0.33,-0.25 -0.47,-0.45 -0.1,-0.12 -0.2,-0.2 -0.31,-0.24 -0.11,-0.05 -0.21,-0.08 -0.32,-0.07 -0.1,0.01 -0.2,0.04 -0.28,0.09 -0.09,0.05 -0.16,0.12 -0.21,0.2 -0.05,0.08 -0.07,0.18 -0.07,0.29 -0.01,0.11 0.03,0.23 0.1,0.36 0.1,0.2 0.24,0.37 0.41,0.51 0.17,0.14 0.35,0.26 0.56,0.35 0.2,0.09 0.41,0.15 0.64,0.19 0.22,0.05 0.43,0.07 0.64,0.07 0.31,0 0.6,-0.05 0.87,-0.15 0.27,-0.09 0.51,-0.23 0.7,-0.39 0.2,-0.17 0.36,-0.37 0.47,-0.59 0.11,-0.23 0.16,-0.47 0.16,-0.73 0,-0.28 -0.05,-0.52 -0.16,-0.72 -0.1,-0.2 -0.25,-0.37 -0.43,-0.51 -0.18,-0.14 -0.39,-0.25 -0.63,-0.35 -0.24,-0.1 -0.49,-0.19 -0.75,-0.27 -0.16,-0.05 -0.31,-0.1 -0.44,-0.15 -0.14,-0.05 -0.26,-0.1 -0.36,-0.17 -0.09,-0.06 -0.17,-0.13 -0.23,-0.21 -0.06,-0.08 -0.09,-0.17 -0.09,-0.27 0,-0.21 0.09,-0.37 0.27,-0.47 0.18,-0.1 0.41,-0.15 0.67,-0.15 0.12,0 0.23,0.02 0.32,0.05 0.1,0.03 0.19,0.07 0.27,0.11 0.09,0.05 0.17,0.11 0.26,0.17 0.08,0.06 0.17,0.13 0.26,0.2 0.11,0.05 0.23,0.06 0.35,0.02 0.12,-0.03 0.21,-0.09 0.29,-0.18 0.08,-0.07 0.12,-0.17 0.14,-0.28 0.02,-0.11 0,-0.23 -0.06,-0.36 -0.08,-0.15 -0.19,-0.28 -0.33,-0.39 -0.14,-0.11 -0.29,-0.2 -0.47,-0.28 -0.18,-0.07 -0.36,-0.12 -0.55,-0.16 -0.2,-0.04 -0.38,-0.06 -0.57,-0.06 -0.28,0 -0.55,0.04 -0.81,0.13 -0.26,0.09 -0.49,0.21 -0.69,0.36 -0.2,0.16 -0.36,0.35 -0.48,0.57 -0.12,0.22 -0.18,0.47 -0.18,0.75 0,0.26 0.06,0.49 0.17,0.68 0.12,0.2 0.27,0.36 0.47,0.51 0.19,0.14 0.41,0.26 0.66,0.37 0.25,0.11 0.5,0.21 0.77,0.3zm5.13 0c0.11,0.04 0.23,0.07 0.35,0.11 0.13,0.04 0.24,0.09 0.34,0.15 0.11,0.06 0.2,0.13 0.27,0.22 0.07,0.09 0.1,0.2 0.1,0.32 0,0.11 -0.02,0.2 -0.08,0.28 -0.05,0.08 -0.12,0.15 -0.21,0.2 -0.09,0.06 -0.19,0.1 -0.3,0.13 -0.12,0.03 -0.23,0.05 -0.35,0.05 -0.27,0 -0.5,-0.05 -0.67,-0.14 -0.18,-0.1 -0.34,-0.25 -0.48,-0.45 -0.09,-0.12 -0.19,-0.2 -0.3,-0.24 -0.11,-0.05 -0.22,-0.08 -0.32,-0.07 -0.11,0.01 -0.2,0.04 -0.29,0.09 -0.08,0.05 -0.15,0.12 -0.2,0.2 -0.05,0.08 -0.08,0.18 -0.08,0.29 0,0.11 0.03,0.23 0.1,0.36 0.11,0.2 0.24,0.37 0.41,0.51 0.17,0.14 0.36,0.26 0.56,0.35 0.21,0.09 0.42,0.15 0.64,0.19 0.22,0.05 0.43,0.07 0.64,0.07 0.31,0 0.61,-0.05 0.88,-0.15 0.27,-0.09 0.5,-0.23 0.7,-0.39 0.19,-0.17 0.35,-0.37 0.46,-0.59 0.11,-0.23 0.17,-0.47 0.17,-0.73 0,-0.28 -0.05,-0.52 -0.16,-0.72 -0.11,-0.2 -0.25,-0.37 -0.44,-0.51 -0.18,-0.14 -0.39,-0.25 -0.62,-0.35 -0.24,-0.1 -0.49,-0.19 -0.75,-0.27 -0.17,-0.05 -0.32,-0.1 -0.45,-0.15 -0.14,-0.05 -0.25,-0.1 -0.35,-0.17 -0.1,-0.06 -0.18,-0.13 -0.24,-0.21 -0.05,-0.08 -0.08,-0.17 -0.08,-0.27 0,-0.21 0.09,-0.37 0.27,-0.47 0.18,-0.1 0.4,-0.15 0.67,-0.15 0.12,0 0.22,0.02 0.32,0.05 0.09,0.03 0.18,0.07 0.27,0.11 0.08,0.05 0.17,0.11 0.25,0.17 0.08,0.06 0.17,0.13 0.26,0.2 0.12,0.05 0.23,0.06 0.35,0.02 0.12,-0.03 0.22,-0.09 0.3,-0.18 0.07,-0.07 0.12,-0.17 0.13,-0.28 0.02,-0.11 0,-0.23 -0.06,-0.36 -0.08,-0.15 -0.18,-0.28 -0.32,-0.39 -0.14,-0.11 -0.3,-0.2 -0.48,-0.28 -0.17,-0.07 -0.36,-0.12 -0.55,-0.16 -0.19,-0.04 -0.38,-0.06 -0.56,-0.06 -0.28,0 -0.55,0.04 -0.81,0.13 -0.27,0.09 -0.5,0.21 -0.69,0.36 -0.2,0.16 -0.36,0.35 -0.48,0.57 -0.13,0.22 -0.19,0.47 -0.19,0.75 0,0.26 0.06,0.49 0.18,0.68 0.11,0.2 0.27,0.36 0.46,0.51 0.2,0.14 0.42,0.26 0.66,0.37 0.25,0.11 0.51,0.21 0.77,0.3z"/>
    <g>
     <path class="fil5" d="M23.03 16.24c-1.15,0.34 -2.34,0.48 -3.53,0.48 -1.09,0 -2.17,-0.12 -3.21,-0.39 -1.45,-0.38 -2.83,-1.06 -3.96,-2.05 -0.24,-0.21 -0.48,-0.44 -0.69,-0.69 0.7,1.4 2.07,2.48 3.47,3.13 0.08,0.03 0.18,0.08 0.27,0.11 0.06,0.03 0.2,0.09 0.27,0.11 0.12,0.05 0.35,0.13 0.48,0.17 0.13,0.04 0.29,0.09 0.42,0.13 0.04,0.01 0.31,0.08 0.35,0.09 1.82,0.41 3.74,0.38 5.54,-0.09 0.1,-0.03 0.25,-0.08 0.35,-0.11 0.04,-0.01 0.11,-0.03 0.14,-0.04 0.09,-0.03 0.33,-0.11 0.41,-0.15 0.07,-0.03 0.2,-0.08 0.27,-0.11 0.08,-0.03 0.19,-0.08 0.27,-0.11 1.4,-0.65 2.77,-1.73 3.47,-3.13 -1.13,1.29 -2.69,2.17 -4.32,2.65z"/>
     <path class="fil5" d="M12.08 12.66c-0.09,-0.05 -0.18,-0.08 -0.28,-0.11 -0.44,-0.1 -0.89,0.12 -1.07,0.54 -0.12,0.29 -0.11,0.62 0.02,0.9 0.08,-0.43 0.17,-0.88 0.56,-1.12 0.2,-0.13 0.45,-0.17 0.69,-0.2 0.03,0 0.05,0 0.08,-0.01z"/>
     <path class="fil5" d="M28.26 13.09c-0.18,-0.42 -0.63,-0.64 -1.07,-0.54 -0.09,0.03 -0.19,0.06 -0.27,0.11 0.02,0.01 0.04,0.01 0.07,0.01 0.24,0.03 0.49,0.07 0.69,0.2 0.39,0.24 0.48,0.69 0.56,1.12 0.13,-0.28 0.14,-0.61 0.02,-0.9z"/>
    </g>
   </g>
   <path class="fil3" d="M71.85 17.02c0,0.04 0.01,0.09 0.03,0.13 0.01,0.04 0.04,0.08 0.07,0.11 0.03,0.03 0.07,0.06 0.11,0.07 0.04,0.02 0.08,0.03 0.13,0.03 0.05,0 0.09,-0.01 0.14,-0.03 0.04,-0.01 0.07,-0.04 0.11,-0.07 0.03,-0.03 0.05,-0.07 0.07,-0.11 0.02,-0.04 0.03,-0.09 0.03,-0.13 0,-0.05 -0.01,-0.09 -0.03,-0.14 -0.02,-0.04 -0.04,-0.08 -0.07,-0.11 -0.04,-0.03 -0.07,-0.05 -0.11,-0.07 -0.05,-0.02 -0.09,-0.03 -0.14,-0.03 -0.05,0 -0.09,0.01 -0.13,0.03 -0.04,0.02 -0.08,0.04 -0.11,0.07 -0.03,0.03 -0.06,0.07 -0.07,0.11 -0.02,0.05 -0.03,0.09 -0.03,0.14zm1.78 -1.04l0 0 0 0.01c0,0.1 0.02,0.19 0.06,0.29 0.04,0.09 0.09,0.18 0.16,0.25 0.06,0.08 0.14,0.14 0.24,0.18 0.09,0.05 0.19,0.07 0.29,0.07 0.1,0.01 0.2,0 0.29,-0.03 0.09,-0.03 0.18,-0.08 0.27,-0.15 0.03,-0.02 0.06,-0.05 0.09,-0.07 0.03,-0.02 0.07,-0.04 0.11,-0.05 0.04,-0.01 0.08,0 0.12,0.01 0.04,0.01 0.09,0.03 0.13,0.07 0.04,0.03 0.06,0.06 0.07,0.1 0.02,0.03 0.03,0.07 0.03,0.11 0,0.04 -0.01,0.08 -0.03,0.12 -0.02,0.04 -0.05,0.07 -0.08,0.11 -0.12,0.12 -0.26,0.21 -0.42,0.27 -0.17,0.06 -0.34,0.09 -0.52,0.09 -0.2,0 -0.38,-0.03 -0.55,-0.1 -0.17,-0.07 -0.31,-0.17 -0.44,-0.29 -0.13,-0.12 -0.23,-0.27 -0.3,-0.44 -0.07,-0.16 -0.11,-0.34 -0.11,-0.53l0 -0.01 0 0 0 -0.01c0,-0.19 0.04,-0.37 0.11,-0.54 0.07,-0.16 0.17,-0.31 0.3,-0.44 0.13,-0.12 0.27,-0.22 0.44,-0.29 0.17,-0.08 0.35,-0.11 0.55,-0.11 0.18,0 0.35,0.03 0.52,0.09 0.16,0.06 0.3,0.15 0.42,0.27 0.03,0.04 0.06,0.08 0.08,0.12 0.02,0.03 0.03,0.07 0.03,0.11 0,0.04 -0.01,0.08 -0.03,0.12 -0.01,0.03 -0.03,0.07 -0.07,0.09 -0.04,0.04 -0.09,0.07 -0.13,0.08 -0.04,0.01 -0.08,0.01 -0.12,0 -0.04,-0.01 -0.08,-0.03 -0.11,-0.05 -0.03,-0.02 -0.06,-0.04 -0.09,-0.07 -0.09,-0.07 -0.18,-0.12 -0.27,-0.14 -0.09,-0.03 -0.19,-0.04 -0.29,-0.04 -0.1,0 -0.2,0.03 -0.29,0.07 -0.09,0.05 -0.17,0.11 -0.24,0.18 -0.07,0.08 -0.12,0.16 -0.16,0.26 -0.04,0.09 -0.06,0.19 -0.06,0.29zm2.69 0c0,-0.11 0.02,-0.21 0.06,-0.31 0.04,-0.1 0.1,-0.18 0.17,-0.25 0.08,-0.08 0.16,-0.13 0.26,-0.17 0.1,-0.05 0.2,-0.07 0.31,-0.07 0.11,0 0.22,0.02 0.32,0.07 0.09,0.04 0.18,0.09 0.25,0.17 0.07,0.07 0.13,0.15 0.17,0.25 0.04,0.1 0.06,0.2 0.06,0.31 0,0.11 -0.02,0.22 -0.06,0.31 -0.04,0.1 -0.1,0.19 -0.17,0.26 -0.07,0.07 -0.16,0.13 -0.25,0.17 -0.1,0.04 -0.21,0.06 -0.32,0.06 -0.11,0 -0.21,-0.02 -0.31,-0.06 -0.1,-0.04 -0.18,-0.1 -0.26,-0.17 -0.07,-0.07 -0.13,-0.16 -0.17,-0.26 -0.04,-0.09 -0.06,-0.2 -0.06,-0.31zm-0.58 0c0,0.19 0.03,0.37 0.11,0.54 0.07,0.17 0.17,0.31 0.29,0.44 0.13,0.12 0.28,0.22 0.44,0.3 0.17,0.07 0.35,0.1 0.54,0.1 0.19,0 0.37,-0.03 0.54,-0.1 0.17,-0.08 0.31,-0.18 0.44,-0.3 0.12,-0.13 0.22,-0.27 0.29,-0.44 0.08,-0.17 0.11,-0.35 0.11,-0.54 0,-0.19 -0.03,-0.37 -0.11,-0.54 -0.07,-0.16 -0.17,-0.31 -0.29,-0.44 -0.13,-0.12 -0.27,-0.22 -0.44,-0.29 -0.17,-0.08 -0.35,-0.11 -0.54,-0.11 -0.19,0 -0.37,0.03 -0.54,0.11 -0.16,0.07 -0.31,0.17 -0.44,0.29 -0.12,0.13 -0.22,0.28 -0.29,0.44 -0.08,0.17 -0.11,0.35 -0.11,0.54zm5.3 1.07c0,0.08 -0.03,0.14 -0.08,0.2 -0.06,0.05 -0.12,0.08 -0.2,0.08 -0.04,0 -0.08,-0.01 -0.12,-0.02 -0.03,-0.02 -0.06,-0.04 -0.09,-0.06 -0.03,-0.03 -0.05,-0.06 -0.07,-0.09 -0.01,-0.04 -0.02,-0.07 -0.02,-0.11l0 -1.42c0,-0.07 -0.01,-0.13 -0.03,-0.19 -0.03,-0.05 -0.06,-0.1 -0.1,-0.14 -0.03,-0.04 -0.08,-0.07 -0.13,-0.09 -0.06,-0.03 -0.12,-0.04 -0.18,-0.04 -0.06,0 -0.13,0.01 -0.19,0.04 -0.06,0.02 -0.12,0.05 -0.17,0.09 -0.04,0.04 -0.09,0.09 -0.12,0.15 -0.03,0.05 -0.05,0.11 -0.05,0.17l0 0.02c0,0 0,0.01 0,0.01 0,0.01 0,0.01 0,0.02l0 1.37c0,0.08 -0.03,0.15 -0.08,0.21 -0.06,0.05 -0.12,0.08 -0.21,0.08 -0.04,0 -0.07,-0.01 -0.11,-0.02 -0.03,-0.02 -0.07,-0.04 -0.09,-0.06 -0.03,-0.03 -0.05,-0.06 -0.06,-0.09 -0.02,-0.04 -0.03,-0.08 -0.03,-0.12l0 -2.16c0,-0.04 0.01,-0.08 0.03,-0.11 0.01,-0.04 0.03,-0.07 0.06,-0.09 0.03,-0.03 0.06,-0.05 0.09,-0.07 0.04,-0.01 0.08,-0.02 0.12,-0.02 0.07,0 0.13,0.02 0.18,0.07 0.05,0.05 0.09,0.1 0.1,0.17 0.08,-0.07 0.16,-0.13 0.26,-0.17 0.09,-0.05 0.2,-0.07 0.31,-0.07 0.15,0 0.29,0.03 0.42,0.09 0.12,0.06 0.23,0.15 0.31,0.25 0.12,-0.1 0.24,-0.19 0.39,-0.25 0.14,-0.06 0.29,-0.09 0.44,-0.09 0.15,0 0.28,0.03 0.4,0.08 0.12,0.06 0.22,0.14 0.31,0.23 0.08,0.1 0.15,0.21 0.2,0.34 0.04,0.12 0.07,0.26 0.07,0.41l0 1.4c0,0.08 -0.03,0.14 -0.09,0.2 -0.05,0.05 -0.12,0.08 -0.2,0.08 -0.04,0 -0.08,-0.01 -0.11,-0.02 -0.04,-0.02 -0.07,-0.04 -0.1,-0.06 -0.02,-0.03 -0.05,-0.06 -0.06,-0.09 -0.02,-0.04 -0.02,-0.07 -0.02,-0.11l0 -1.41c-0.01,-0.07 -0.02,-0.13 -0.04,-0.19 -0.02,-0.06 -0.05,-0.1 -0.09,-0.15 -0.04,-0.04 -0.09,-0.07 -0.14,-0.09 -0.05,-0.03 -0.11,-0.04 -0.18,-0.04 -0.06,0 -0.13,0.01 -0.19,0.04 -0.06,0.02 -0.12,0.05 -0.17,0.09 -0.05,0.05 -0.09,0.09 -0.12,0.15 -0.03,0.05 -0.04,0.11 -0.05,0.18l0 1.42z"/>
  </g>
 </g>
</svg>
